<?xml version="1.0" encoding="UTF-8" standalone="no"?>
<svg xmlns="http://www.w3.org/2000/svg" viewBox="0 0 100 100" width="512" height="512">
  <title>Lohit Kolluri</title>
  <defs>
    <linearGradient id="grad1" x1="0%" y1="0%" x2="100%" y2="100%">
      <stop offset="0%" stop-color="#BB86FC" stop-opacity="0.8" />
      <stop offset="100%" stop-color="#EEEEEE" stop-opacity="1" />
    </linearGradient>
    <filter id="glow" x="-50%" y="-50%" width="200%" height="200%">
      <feGaussianBlur stdDeviation="2.5" result="coloredBlur" />
      <feMerge>
        <feMergeNode in="coloredBlur" />
        <feMergeNode in="SourceGraphic" />
      </feMerge>
    </filter>
  </defs>
  <circle cx="50" cy="50" r="42" fill="#121212" />
  <g>
    <!-- Letter L -->
    <rect
      x="15"
      y="15"
      width="20"
      height="70"
      fill="url(#grad1)"
      stroke="#BB86FC"
      stroke-width="1.5"
    />
    <rect
      x="15"
      y="65"
      width="50"
      height="20"
      fill="url(#grad1)"
      stroke="#BB86FC"
      stroke-width="1.5"
    />

    <!-- Letter K -->
    <path
      d="M 65 15 L 65 55 L 45 35 L 65 15 L 85 15 L 65 55 L 85 95 L 65 95 L 65 55"
      fill="url(#grad1)"
      stroke="#BB86FC"
      stroke-width="1.5"
    />

    <!-- Additional Shapes -->
    <circle cx="25" cy="25" r="5" fill="#BB86FC" opacity="0.7" />
    <circle cx="75" cy="75" r="5" fill="#BB86FC" opacity="0.7" />
    <polygon points="50,10 60,30 40,30" fill="#03DAC6" opacity="0.7" />
    <polygon points="30,90 40,70 20,70" fill="#03DAC6" opacity="0.7" />

    <!-- Glowing Effect -->
    <circle
      cx="50"
      cy="50"
      r="40"
      fill="none"
      stroke="#BB86FC"
      stroke-width="1"
      filter="url(#glow)"
      opacity="0.4"
    />
  </g>
</svg> 